<svg xmlns="http://www.w3.org/2000/svg" viewBox="0 0 64 64">
  <defs>
    <linearGradient id="ember" x1="0" y1="0" x2="0" y2="1">
      <stop offset="0" stop-color="#ffd778"/>
      <stop offset="0.5" stop-color="#e99a38"/>
      <stop offset="1" stop-color="#a83b28"/>
    </linearGradient>
    <radialGradient id="ground" cx="50%" cy="35%" r="70%">
      <stop offset="0" stop-color="#2a2117"/>
      <stop offset="1" stop-color="#090b0f"/>
    </radialGradient>
  </defs>

  <rect x="2" y="2" width="60" height="60" rx="13" fill="url(#ground)" stroke="#3d3020" stroke-width="2"/>
  <path d="M32 6 58 32 32 58 6 32Z" fill="none" stroke="#d59d47" stroke-width="2.5"/>
  <path d="M34 11c1 9 12 13 12 25 0 9-6 15-14 15S18 45 18 36c0-7 4-12 9-17-1 7 2 9 4 10 5-5 5-11 3-18Z" fill="url(#ember)" opacity="0.92"/>
  <path d="M23 20h19v6H30v4h10v6H30v4h13v6H23Z" fill="#fff0c2" stroke="#4b2417" stroke-width="1.2" stroke-linejoin="round"/>
</svg>
